# xmcd
#
# Track frame offsets: 
#        150
#        29899
#        51976
#        74662
#        102582
#        123112
#        156418
#        171792
#        195029
#        216746
#
# Disc length: 3210 seconds
#
# Revision: 1
# Processed by: cddbd v1.5.2PL0 Copyright (c) Steve Scherf et al.
# Submitted via: ExactAudioCopy v1.0b3
#
DISCID=9b0c880a
DTITLE=Kyle Eastwood - Metropolitain
DYEAR=2009
DGENRE=Jazz
TTITLE0=Metropolitain
TTITLE1=Bold Changes
TTITLE2=Hot Box
TTITLE3=Black Light
TTITLE4=Bel Air
TTITLE5=Samba de Paris
TTITLE6=Song for You
TTITLE7=Rue Perdue
TTITLE8=Le Balai
TTITLE9=Live for Life
EXTD=YEAR: 2009
EXTT0=
EXTT1=
EXTT2=
EXTT3=
EXTT4=
EXTT5=
EXTT6=
EXTT7=
EXTT8=
EXTT9=
PLAYORDER=
